<?xml version="1.0" encoding="UTF-8"?><svg id="Layer_2" xmlns="http://www.w3.org/2000/svg" xmlns:xlink="http://www.w3.org/1999/xlink" viewBox="0 0 500 500"><defs><pattern id="New_Pattern" x="0" y="0" width="169.81" height="169.81" patternTransform="translate(4208.3 4672.36) scale(1.6)" patternUnits="userSpaceOnUse" viewBox="0 0 169.81 169.81"><rect x="0" y="0" width="169.81" height="169.81" style="fill:none;"/><rect x="0" y="0" width="169.81" height="169.81" style="fill:#f9f8f7;"/><path d="m94.19,24.9c-1.97,4.38-5.88,6.61-9.58,9.3-2.86,2.08-5.48,6.39-2.98,8.99.16-.17.33-.35.49-.52.75-.76,1.53-1.5,2.3-2.19.77-.7,1.55-1.37,2.28-2.02.74-.65,1.45-1.27,2.09-1.89.16-.15.32-.31.48-.46.15-.15.29-.31.44-.45.3-.29.56-.6.83-.88.49-.59.94-1.14,1.27-1.68.08-.13.17-.26.24-.39.08-.12.13-.25.2-.37.13-.24.25-.46.33-.67.09-.21.17-.4.23-.56.05-.17.1-.32.13-.43.07-.24.11-.37.11-.37,0,0,0,.13-.03.38,0,.13-.02.28-.04.46-.03.18-.07.38-.12.62-.04.23-.13.48-.21.75-.07.28-.2.56-.34.86-.26.61-.64,1.25-1.09,1.93-.47.66-.99,1.37-1.61,2.05-.61.69-1.28,1.39-1.99,2.09-.71.7-1.45,1.4-2.2,2.11-.75.71-1.49,1.44-2.22,2.18-.12.12-.24.24-.35.36-.57.61-1.12,1.25-1.64,1.9-.32.43-.65.85-.93,1.29-.3.43-.56.89-.81,1.33-.48.91-.89,1.82-1.15,2.73-.3.89-.44,1.78-.53,2.59-.08.81-.08,1.56-.03,2.22,0,.16.02.32.03.47.02.15.04.3.07.44.04.28.09.54.12.77.09.45.2.8.26,1.05.06.24.1.37.1.37,0,0-.02-.53-.06-1.46,0-.23,0-.48.02-.75,0-.13,0-.28,0-.42.01-.15.03-.3.04-.46.04-.63.16-1.33.31-2.08.05-.19.09-.37.14-.57.02-.1.05-.19.07-.29.03-.1.06-.19.1-.29.06-.19.13-.39.19-.6.06-.2.16-.4.23-.6.31-.81.77-1.61,1.25-2.43.51-.8,1.09-1.6,1.73-2.38.52-.62,1.64-1.98,3.58-1.87h0c9.3,1.02,12.19-16.11,8.22-20.18Z" style="fill:#6fbe44;"/><path d="m74.53,1.51c-1.97,4.38-5.88,6.61-9.58,9.3-2.86,2.08-5.48,6.39-2.98,8.99.16-.17.33-.35.49-.52.75-.76,1.53-1.5,2.3-2.19.77-.7,1.55-1.37,2.28-2.02.74-.65,1.45-1.27,2.09-1.89.16-.15.32-.31.48-.46.15-.15.29-.31.45-.45.3-.29.56-.6.83-.88.49-.59.94-1.14,1.27-1.68.08-.13.17-.26.24-.39.08-.12.14-.25.2-.37.13-.24.25-.46.33-.67.09-.21.17-.4.23-.56.05-.17.1-.32.13-.43.07-.24.11-.37.11-.37,0,0,0,.13-.03.38,0,.13-.02.28-.04.46-.03.18-.07.38-.12.62-.04.23-.13.48-.21.75-.07.28-.2.56-.34.86-.26.61-.64,1.25-1.09,1.93-.47.66-.99,1.37-1.61,2.05-.61.69-1.28,1.39-1.99,2.09-.71.7-1.45,1.4-2.2,2.11-.75.71-1.49,1.44-2.22,2.18-.12.12-.24.24-.35.36-.57.61-1.12,1.25-1.64,1.9-.32.43-.65.85-.93,1.29-.3.43-.56.89-.81,1.33-.48.91-.89,1.82-1.15,2.73-.3.89-.44,1.78-.53,2.59-.08.81-.08,1.56-.03,2.22,0,.16.02.32.03.47.02.15.04.3.07.44.04.28.09.54.12.77.09.45.2.8.26,1.05.06.24.1.37.1.37,0,0-.02-.53-.06-1.46,0-.23,0-.48.02-.75,0-.13,0-.28,0-.42.01-.15.03-.3.04-.46.04-.63.16-1.33.31-2.08.05-.19.09-.37.14-.57.02-.1.05-.19.07-.29.03-.1.06-.19.1-.29.06-.19.13-.39.19-.6.06-.2.16-.4.23-.6.31-.81.77-1.61,1.25-2.43.51-.8,1.09-1.6,1.73-2.38.52-.62,1.64-1.98,3.58-1.87h0c9.29,1.02,12.19-16.11,8.22-20.18Z" style="fill:#6fbe44;"/><path d="m102.29,145.37c-2.66,2.23-5.92,2.45-9.17,3.04-2.52.45-5.58,2.43-4.77,4.92.16-.06.32-.12.48-.18.73-.26,1.47-.49,2.19-.7.72-.22,1.44-.41,2.12-.6.69-.19,1.34-.37,1.96-.57.15-.05.3-.1.45-.15.15-.05.29-.11.43-.16.29-.09.55-.21.82-.31.51-.23.97-.45,1.35-.69.1-.06.19-.12.28-.18.09-.05.17-.12.25-.18.16-.12.31-.22.43-.33.12-.11.23-.21.33-.29.09-.1.16-.18.22-.24.12-.13.19-.2.19-.2,0,0-.05.08-.14.24-.05.08-.1.17-.17.29-.07.11-.17.23-.27.36-.1.14-.23.27-.37.42-.14.16-.31.3-.49.46-.36.31-.81.62-1.32.92-.51.28-1.08.58-1.7.83-.62.26-1.27.51-1.95.73-.68.23-1.39.46-2.1.68-.71.23-1.43.46-2.13.72-.11.04-.23.08-.34.12-.57.22-1.12.46-1.67.72-.34.18-.69.35-1.01.55-.33.18-.64.4-.95.61-.6.44-1.15.91-1.61,1.41-.48.49-.85,1.02-1.16,1.52-.31.5-.55.99-.72,1.43-.05.11-.09.22-.13.32-.04.11-.07.21-.1.31-.06.2-.11.38-.16.54-.09.32-.12.59-.16.76-.03.18-.05.27-.05.27,0,0,.16-.35.42-.97.07-.15.16-.31.25-.49.04-.09.09-.18.14-.27.05-.09.11-.19.17-.29.23-.4.52-.82.86-1.26.09-.11.18-.21.27-.33.04-.06.09-.11.14-.17.05-.05.1-.11.16-.16.1-.11.21-.22.31-.33.1-.11.23-.21.34-.32.46-.43,1.01-.81,1.58-1.19.59-.36,1.22-.7,1.88-1,.54-.24,1.69-.78,2.92-.09h0c5.73,3.59,13.02-6.65,11.71-10.55Z" style="fill:#6fbe44;"/><path d="m79.87,176.96c5.1-3.14,10.7-2.72,16.4-2.91,4.4-.15,10.13-2.76,9.36-7.2-.29.07-.58.13-.87.19-1.31.26-2.62.48-3.91.65-1.29.19-2.56.34-3.77.49-1.22.16-2.39.3-3.48.49-.28.04-.54.09-.81.14-.26.05-.52.11-.78.16-.52.09-.99.23-1.47.33-.92.27-1.77.53-2.48.84-.18.08-.35.15-.52.23-.17.07-.32.17-.47.24-.3.16-.58.3-.81.46-.24.16-.45.3-.64.42-.17.14-.32.26-.44.35-.24.19-.37.3-.37.3,0,0,.1-.13.29-.37.1-.12.22-.27.36-.45.15-.17.34-.34.56-.55.2-.21.46-.41.74-.63.27-.24.6-.44.95-.65.69-.45,1.53-.85,2.47-1.24.94-.36,1.98-.72,3.1-.99,1.11-.29,2.29-.55,3.51-.77,1.22-.23,2.48-.44,3.75-.65,1.27-.21,2.55-.44,3.82-.69.2-.04.41-.08.61-.13,1.02-.23,2.03-.5,3.02-.82.63-.22,1.26-.42,1.86-.68.61-.23,1.19-.53,1.77-.81,1.13-.6,2.19-1.26,3.1-2.01.93-.71,1.7-1.53,2.36-2.3.65-.78,1.18-1.55,1.58-2.27.1-.17.21-.35.3-.51.09-.17.17-.34.24-.5.15-.32.29-.61.41-.88.23-.53.36-.97.47-1.26.1-.29.16-.45.16-.45,0,0-.35.56-.96,1.54-.16.23-.34.49-.54.77-.1.14-.2.28-.31.43-.12.14-.24.29-.36.44-.48.62-1.09,1.27-1.78,1.93-.18.16-.36.32-.54.49-.09.09-.18.17-.28.25-.1.08-.2.15-.31.23-.2.16-.4.32-.62.48-.2.17-.44.3-.66.45-.89.62-1.92,1.13-2.99,1.63-1.09.47-2.25.89-3.45,1.25-.98.27-3.07.9-5-.57h0c-8.88-7.55-23.86,8.12-22.59,15.09Z" style="fill:#399f49;"/><path d="m47.28,120.38c-1.97-4.38-5.88-6.61-9.58-9.3-2.86-2.08-5.48-6.39-2.98-8.99.16.17.33.35.49.52.75.76,1.53,1.5,2.3,2.19.77.7,1.55,1.37,2.28,2.02.74.65,1.45,1.27,2.09,1.89.16.15.32.31.48.46.15.15.29.31.45.45.3.29.56.6.83.88.49.59.94,1.14,1.27,1.68.08.13.17.26.24.39.08.12.14.25.2.37.13.24.25.46.33.67.09.21.17.4.23.56.05.17.1.32.13.43.07.24.11.37.11.37,0,0,0-.13-.03-.38,0-.13-.02-.28-.04-.46-.03-.18-.07-.38-.12-.62-.04-.23-.13-.48-.21-.75-.07-.28-.2-.56-.34-.86-.26-.61-.64-1.26-1.09-1.93-.47-.66-.99-1.37-1.61-2.05-.61-.69-1.28-1.39-1.99-2.09-.71-.7-1.45-1.4-2.2-2.11-.75-.71-1.49-1.44-2.22-2.18-.12-.12-.24-.24-.35-.36-.57-.61-1.12-1.25-1.64-1.9-.32-.43-.65-.85-.93-1.29-.3-.43-.56-.89-.81-1.33-.48-.91-.89-1.82-1.15-2.73-.3-.89-.44-1.78-.53-2.59-.08-.81-.08-1.56-.03-2.22,0-.16.02-.32.03-.47.02-.15.04-.3.07-.44.04-.28.09-.54.12-.77.09-.45.2-.8.26-1.05.06-.24.1-.37.1-.37,0,0-.02.53-.06,1.46,0,.23,0,.48.02.75,0,.14,0,.28,0,.42.01.15.03.3.04.46.04.63.16,1.33.31,2.08.05.19.09.37.14.57.02.1.05.19.07.29.03.1.06.19.1.29.06.19.13.39.19.6.06.2.16.4.23.6.31.81.77,1.61,1.25,2.43.51.8,1.09,1.6,1.73,2.38.52.62,1.64,1.98,3.58,1.87h0c9.29-1.02,12.19,16.11,8.22,20.18Z" style="fill:#6fbe44;"/><path d="m129.16,115.02c-3.96-2.71-8.47-2.58-13.02-2.95-3.52-.29-8.01-2.59-7.23-6.12.23.06.46.13.69.18,1.04.25,2.08.48,3.11.67,1.02.2,2.03.37,3,.54.97.17,1.9.33,2.77.52.22.05.43.1.64.14.21.05.41.11.62.16.41.09.79.22,1.16.32.73.25,1.4.49,1.95.77.14.07.28.14.41.2.13.06.25.14.37.21.23.14.46.26.63.4.18.14.35.26.49.36.13.12.25.22.34.3.19.16.29.25.29.25,0,0-.08-.11-.22-.31-.07-.1-.17-.23-.27-.37-.12-.14-.26-.29-.43-.46-.16-.18-.36-.34-.57-.53-.21-.2-.46-.37-.74-.56-.54-.38-1.2-.74-1.93-1.08-.74-.32-1.56-.65-2.45-.91-.88-.27-1.82-.52-2.79-.75-.97-.23-1.97-.44-2.98-.66-1.01-.22-2.02-.45-3.03-.7-.16-.04-.33-.08-.49-.12-.81-.22-1.61-.48-2.39-.77-.5-.2-.99-.39-1.47-.62-.48-.21-.94-.47-1.39-.71-.88-.52-1.7-1.09-2.41-1.73-.72-.61-1.3-1.29-1.8-1.93-.49-.65-.88-1.29-1.18-1.88-.08-.14-.15-.28-.22-.42-.06-.14-.12-.28-.17-.41-.11-.26-.21-.5-.29-.72-.16-.43-.25-.79-.33-1.03-.07-.24-.11-.37-.11-.37,0,0,.26.46.71,1.27.12.19.26.4.41.64.07.11.15.23.23.36.09.12.18.24.27.37.36.51.83,1.06,1.35,1.61.14.14.27.27.42.41.07.07.14.14.21.21.08.07.16.13.24.2.15.13.31.27.48.41.16.14.34.26.51.39.69.53,1.5.98,2.33,1.42.85.42,1.77.8,2.72,1.13.77.26,2.43.84,4.03-.27h0c7.4-5.71,18.8,7.4,17.53,12.94Z" style="fill:#6fbe44;"/><path d="m157.57,120.26c-1.68,1.78-1.98,4.05-2.53,6.31-.43,1.75-1.95,3.82-3.66,3.14.05-.11.1-.22.15-.33.21-.5.41-1.01.59-1.51.18-.5.35-.99.51-1.46.17-.47.32-.93.49-1.35.04-.11.08-.21.12-.31.04-.1.09-.2.13-.3.08-.2.17-.38.26-.56.18-.35.36-.66.54-.92.05-.06.09-.13.14-.19.04-.06.09-.11.14-.17.09-.11.17-.21.25-.29.08-.08.16-.16.22-.22.07-.06.13-.11.18-.15.1-.08.15-.12.15-.12,0,0-.06.03-.17.09-.06.03-.13.07-.21.11-.08.05-.17.11-.27.18-.1.06-.2.15-.31.25-.12.09-.22.2-.34.33-.24.24-.47.54-.7.89-.22.35-.45.73-.65,1.16-.21.42-.41.87-.6,1.34-.19.47-.38.95-.57,1.44-.19.49-.39.98-.6,1.47-.03.08-.07.16-.1.23-.18.39-.37.77-.58,1.14-.14.23-.27.47-.43.69-.14.22-.31.43-.47.64-.33.4-.69.77-1.06,1.07-.36.31-.75.55-1.12.75-.37.19-.72.34-1.04.44-.08.03-.16.05-.23.08-.08.02-.15.04-.22.05-.14.03-.27.06-.39.09-.23.05-.42.06-.54.08-.13.02-.19.02-.19.02,0,0,.25-.09.7-.26.11-.05.22-.1.35-.15.06-.03.13-.06.2-.09.07-.03.14-.07.21-.11.29-.14.6-.33.92-.55.08-.06.16-.12.24-.18.04-.03.08-.06.12-.09.04-.03.08-.07.12-.1.08-.07.16-.14.24-.21.08-.07.16-.15.24-.23.32-.3.61-.67.9-1.06.28-.4.54-.82.79-1.27.19-.37.62-1.15.19-2.05h0c-2.28-4.18,5.23-8.86,7.91-7.77Z" style="fill:#6fbe44;"/><path d="m118.17,163.08c3.22.74,6.08-.47,9.1-1.38,2.33-.7,5.79-.35,6.17,2.11-.16.02-.33.03-.49.05-.73.1-1.46.21-2.16.35-.71.13-1.4.28-2.06.41-.67.13-1.3.26-1.91.36-.15.03-.3.05-.45.07-.15.02-.29.03-.43.05-.29.05-.56.06-.83.09-.53.02-1.02.04-1.45,0-.11,0-.21-.02-.31-.03-.1,0-.19-.03-.29-.04-.18-.03-.36-.05-.51-.1-.15-.04-.29-.08-.41-.11-.12-.04-.21-.08-.29-.11-.16-.06-.25-.09-.25-.09,0,0,.08.05.22.14.07.05.16.1.27.17.11.06.24.12.39.19.14.08.31.13.5.2.18.08.39.12.61.17.44.11.95.17,1.51.21.56.02,1.17.03,1.8-.03.63-.05,1.3-.12,1.98-.22.68-.1,1.37-.21,2.08-.32.7-.11,1.41-.22,2.12-.31.11-.01.23-.03.34-.04.57-.06,1.15-.1,1.72-.11.37,0,.73,0,1.1.03.36.01.72.07,1.07.11.7.11,1.37.27,1.98.5.62.21,1.16.5,1.64.79.48.3.89.6,1.23.91.09.07.17.14.25.21.08.07.15.15.21.22.14.14.26.27.37.39.21.24.36.44.47.58.1.14.16.21.16.21,0,0-.28-.23-.78-.64-.13-.09-.27-.19-.42-.31-.08-.05-.15-.11-.24-.17-.09-.05-.18-.11-.27-.17-.36-.24-.8-.47-1.27-.7-.12-.05-.24-.11-.37-.16-.06-.03-.13-.06-.19-.08-.07-.02-.13-.05-.2-.07-.13-.05-.27-.09-.41-.14-.14-.05-.28-.08-.43-.12-.58-.17-1.21-.25-1.85-.33-.65-.06-1.33-.07-2.03-.04-.56.03-1.77.07-2.51,1.18h0c-3.31,5.52-13.92-.03-14.49-3.9Z" style="fill:#6fbe44;"/><path d="m185.48,172.02c-3.96-2.71-8.47-2.58-13.02-2.95-3.52-.29-8.01-2.59-7.23-6.12.23.06.46.13.69.18,1.04.25,2.08.48,3.11.67,1.02.2,2.03.37,3,.54.97.17,1.9.33,2.77.52.22.05.43.1.64.14.21.05.41.11.62.16.41.09.79.22,1.16.32.73.25,1.4.49,1.95.77.14.07.28.14.41.2.13.06.25.14.37.21.23.14.46.26.63.4.18.14.35.26.49.36.13.12.25.22.34.3.19.16.29.25.29.25,0,0-.08-.11-.22-.31-.07-.1-.17-.23-.27-.37-.12-.14-.26-.29-.43-.46-.16-.18-.36-.34-.57-.53-.21-.2-.46-.37-.74-.56-.54-.38-1.2-.74-1.93-1.08-.74-.32-1.56-.65-2.45-.91-.88-.27-1.82-.52-2.79-.75-.97-.23-1.97-.44-2.98-.66-1.01-.22-2.02-.45-3.03-.7-.16-.04-.33-.08-.49-.12-.81-.22-1.61-.48-2.39-.77-.5-.2-.99-.39-1.47-.62-.48-.21-.94-.47-1.39-.71-.88-.52-1.7-1.09-2.41-1.73-.72-.61-1.3-1.29-1.81-1.93-.49-.65-.88-1.29-1.18-1.88-.08-.14-.15-.28-.22-.42-.06-.14-.12-.28-.17-.41-.11-.26-.21-.5-.29-.72-.16-.43-.25-.79-.33-1.03-.07-.24-.11-.37-.11-.37,0,0,.26.46.71,1.27.12.19.26.4.41.64.07.11.15.23.23.36.09.12.18.24.27.37.36.51.83,1.06,1.35,1.61.14.14.27.27.42.41.07.07.14.14.21.21.08.07.16.13.24.2.15.13.31.27.48.41.16.14.34.26.51.39.69.53,1.5.98,2.33,1.42.85.42,1.77.8,2.72,1.13.77.26,2.43.84,4.03-.27h0c7.4-5.71,18.8,7.4,17.53,12.94Z" style="fill:#6fbe44;"/><path d="m151.16,58.02c-3.96-2.71-8.47-2.58-13.02-2.95-3.52-.29-8.01-2.59-7.23-6.12.23.06.46.13.69.18,1.04.25,2.08.48,3.11.67,1.02.2,2.03.37,3,.54.97.17,1.9.33,2.77.52.22.05.43.1.64.14.21.05.41.11.62.16.41.09.79.22,1.16.32.73.25,1.4.49,1.95.77.14.07.28.14.41.2.13.06.25.14.37.21.23.14.46.26.63.4.18.14.35.26.49.36.13.12.25.22.34.3.19.16.29.25.29.25,0,0-.08-.11-.22-.31-.07-.1-.17-.23-.27-.37-.12-.14-.26-.29-.43-.46-.16-.18-.36-.34-.57-.53-.21-.2-.46-.37-.74-.56-.54-.38-1.2-.74-1.93-1.08-.74-.32-1.56-.65-2.45-.91-.88-.27-1.82-.52-2.79-.75-.97-.23-1.97-.44-2.98-.66-1.01-.22-2.02-.45-3.03-.7-.16-.04-.33-.08-.49-.12-.81-.22-1.61-.48-2.39-.77-.5-.2-.99-.39-1.47-.62-.48-.21-.94-.47-1.39-.71-.88-.52-1.7-1.09-2.41-1.73-.72-.61-1.3-1.29-1.8-1.93-.49-.65-.88-1.29-1.18-1.88-.08-.14-.15-.28-.22-.42-.06-.14-.12-.28-.17-.41-.11-.26-.21-.5-.29-.72-.16-.43-.25-.79-.33-1.03-.07-.24-.11-.37-.11-.37,0,0,.26.46.71,1.27.12.19.26.4.41.64.07.11.15.23.23.36.09.12.18.24.27.37.36.51.83,1.06,1.35,1.61.14.14.27.27.42.41.07.07.14.14.21.21.08.07.16.13.24.2.15.13.31.27.48.41.16.14.34.26.51.39.69.53,1.5.98,2.33,1.42.85.42,1.77.8,2.72,1.13.77.26,2.43.84,4.03-.27h0c7.4-5.71,18.8,7.4,17.53,12.94Z" style="fill:#6fbe44;"/><path d="m57.7,143.81c.92-4.71-.98-8.8-2.44-13.13-1.13-3.35-.78-8.38,2.77-9.06.03.24.06.47.1.7.18,1.05.38,2.11.61,3.12.22,1.02.47,2.01.69,2.97.22.96.45,1.88.61,2.75.04.22.08.43.12.65.03.21.06.42.1.63.08.41.11.81.16,1.2.06.77.1,1.47.07,2.1,0,.16-.02.31-.03.46,0,.15-.04.28-.05.42-.03.27-.06.52-.12.74-.05.22-.1.42-.14.6-.06.17-.11.31-.14.43-.08.24-.12.36-.12.36,0,0,.07-.11.2-.33.07-.11.14-.24.23-.4.08-.16.16-.36.26-.57.1-.21.17-.46.26-.74.1-.27.16-.57.22-.9.14-.64.21-1.39.23-2.21,0-.81-.02-1.69-.13-2.61-.1-.92-.24-1.87-.41-2.85-.17-.98-.37-1.98-.57-3-.2-1.01-.39-2.04-.55-3.06-.03-.16-.05-.33-.08-.5-.12-.83-.2-1.67-.24-2.5-.02-.53-.04-1.07-.01-1.59,0-.52.06-1.04.11-1.56.13-1.02.33-2,.64-2.89.27-.9.67-1.71,1.06-2.42.41-.71.83-1.32,1.26-1.82.1-.13.2-.25.3-.37.1-.11.21-.22.31-.32.2-.2.38-.39.54-.56.34-.32.63-.54.82-.7.19-.16.29-.24.29-.24,0,0-.32.42-.89,1.16-.13.19-.27.4-.42.62-.08.11-.15.23-.24.35-.08.13-.15.26-.23.4-.33.54-.64,1.18-.95,1.88-.07.18-.14.36-.21.54-.04.09-.07.18-.11.28-.03.1-.06.2-.09.29-.06.19-.12.39-.19.6-.07.2-.1.41-.16.62-.21.84-.31,1.76-.38,2.7-.05.95-.03,1.94.04,2.94.07.81.19,2.56,1.84,3.59h0c8.18,4.54.64,20.2-4.95,21.22Z" style="fill:#6fbe44;"/><path d="m151.72,71.53c2.79-3.9,2.76-8.41,3.23-12.96.36-3.52,2.77-7.95,6.28-7.09-.07.23-.14.46-.2.68-.28,1.03-.53,2.07-.74,3.09-.22,1.02-.41,2.03-.6,2.99-.2.97-.37,1.89-.58,2.76-.05.22-.11.43-.16.64-.06.21-.12.41-.17.61-.1.41-.24.78-.35,1.16-.27.72-.52,1.38-.81,1.94-.07.14-.14.27-.21.4-.07.13-.15.24-.22.36-.14.23-.27.45-.41.62-.14.18-.26.35-.37.49-.12.13-.23.24-.31.33-.17.18-.26.28-.26.28,0,0,.11-.07.32-.21.1-.07.23-.16.38-.27.14-.11.29-.26.47-.42.18-.15.35-.35.54-.56.2-.2.38-.46.58-.73.4-.53.77-1.18,1.13-1.91.34-.74.68-1.55.96-2.43.29-.87.56-1.8.81-2.77.25-.96.48-1.96.72-2.96.24-1,.49-2.01.76-3.01.04-.16.09-.32.13-.48.24-.8.51-1.6.82-2.37.21-.49.41-.99.65-1.45.22-.48.49-.93.74-1.37.54-.87,1.13-1.68,1.78-2.37.62-.71,1.32-1.28,1.97-1.76.66-.48,1.31-.85,1.9-1.14.15-.07.29-.15.42-.21.14-.06.28-.11.42-.16.26-.1.51-.2.72-.28.44-.15.8-.23,1.03-.3.24-.06.37-.1.37-.1,0,0-.47.25-1.29.68-.19.12-.41.25-.64.39-.12.07-.24.14-.36.22-.12.08-.25.17-.38.26-.52.35-1.07.8-1.64,1.32-.14.13-.28.27-.42.41-.07.07-.14.14-.22.21-.07.08-.13.15-.2.23-.14.15-.28.31-.42.47-.14.15-.26.33-.4.5-.55.68-1.01,1.47-1.47,2.3-.44.84-.83,1.75-1.19,2.69-.27.77-.89,2.41.18,4.03h0c5.55,7.52-7.8,18.64-13.31,17.25Z" style="fill:#6fbe44;"/><path d="m87.86,99.9c-1.97,4.38-5.88,6.61-9.58,9.3-2.86,2.08-5.48,6.39-2.98,8.99.16-.17.33-.35.49-.52.75-.76,1.53-1.5,2.3-2.19.77-.7,1.55-1.37,2.28-2.02.74-.65,1.45-1.27,2.09-1.89.16-.15.32-.31.48-.46.15-.15.29-.31.44-.45.3-.29.56-.6.83-.88.49-.59.94-1.14,1.27-1.68.08-.13.17-.26.24-.39.08-.12.13-.25.2-.37.13-.24.25-.46.33-.67.09-.21.17-.4.23-.56.05-.17.1-.32.13-.43.07-.24.11-.37.11-.37,0,0,0,.13-.03.38,0,.13-.02.28-.04.46-.03.18-.07.38-.12.62-.04.23-.13.48-.21.75-.07.28-.2.56-.34.86-.26.61-.64,1.26-1.09,1.93-.47.66-.99,1.37-1.61,2.05-.61.69-1.28,1.39-1.99,2.09-.71.7-1.45,1.4-2.2,2.11-.75.71-1.49,1.44-2.22,2.18-.12.12-.24.24-.35.36-.57.61-1.12,1.25-1.64,1.9-.32.43-.65.85-.93,1.29-.3.43-.56.89-.81,1.33-.48.91-.89,1.82-1.15,2.73-.3.89-.44,1.78-.53,2.59-.08.81-.08,1.56-.03,2.22,0,.16.02.32.03.47.02.15.04.3.07.44.04.28.09.54.12.77.09.45.2.8.26,1.05.06.24.1.37.1.37,0,0-.02-.53-.06-1.46,0-.23,0-.48.02-.75,0-.14,0-.28,0-.42.01-.15.03-.3.04-.46.04-.63.16-1.33.31-2.08.05-.19.09-.37.14-.57.02-.1.05-.19.07-.29.03-.1.06-.19.1-.29.06-.19.13-.39.19-.6.06-.2.16-.4.23-.6.31-.81.77-1.61,1.25-2.43.51-.8,1.09-1.6,1.73-2.38.52-.62,1.64-1.98,3.58-1.87h0c9.29,1.02,12.19-16.11,8.22-20.18Z" style="fill:#399f49;"/><path d="m165.53,37.14c-3.02-3.73-3.26-8.23-4-12.74-.57-3.49-3.24-7.77-6.69-6.71.08.22.16.45.24.67.34,1.02.65,2.04.92,3.04.28,1,.53,2,.78,2.94.25.95.49,1.87.75,2.72.06.21.13.42.19.63.07.2.14.4.21.6.12.4.28.77.42,1.13.31.7.6,1.35.93,1.89.08.13.16.27.24.39.07.13.16.23.24.35.16.22.3.43.45.6.15.17.28.33.4.46.13.12.24.23.33.31.18.17.28.27.28.27,0,0-.11-.07-.33-.2-.11-.06-.24-.15-.39-.24-.15-.11-.31-.24-.5-.39-.19-.14-.37-.33-.58-.53-.22-.19-.41-.43-.62-.69-.43-.5-.84-1.13-1.24-1.84-.38-.71-.78-1.5-1.1-2.36-.34-.86-.67-1.77-.97-2.72-.31-.95-.6-1.92-.9-2.91-.3-.99-.61-1.98-.94-2.96-.05-.16-.11-.32-.16-.47-.29-.79-.61-1.56-.96-2.32-.24-.48-.47-.96-.74-1.41-.25-.46-.54-.89-.82-1.33-.59-.84-1.23-1.61-1.92-2.26-.66-.67-1.39-1.2-2.07-1.64-.69-.44-1.35-.78-1.97-1.02-.15-.06-.3-.13-.43-.19-.15-.05-.29-.1-.42-.14-.27-.09-.52-.16-.74-.24-.45-.12-.81-.18-1.05-.24-.24-.05-.37-.08-.37-.08,0,0,.48.22,1.33.61.2.1.42.22.67.35.12.06.24.13.37.2.13.08.26.16.39.24.54.32,1.12.74,1.72,1.22.15.13.29.25.44.38.08.06.15.13.23.2.07.07.14.14.22.22.14.14.29.29.44.44.15.15.28.32.43.48.59.65,1.1,1.41,1.6,2.21.49.82.94,1.69,1.35,2.62.32.75,1.03,2.35.06,4.03h0c-5.09,7.84,8.9,18.14,14.32,16.42Z" style="fill:#399f49;"/><path d="m50.12,90.47c-3.02-3.73-3.26-8.23-4-12.74-.57-3.49-3.24-7.77-6.69-6.7.08.22.16.45.24.67.34,1.02.65,2.04.92,3.04.28,1,.53,2,.78,2.94.25.95.49,1.87.75,2.72.06.21.13.42.19.63.07.2.14.4.21.6.12.4.28.77.42,1.13.31.7.6,1.35.93,1.89.08.13.16.27.24.39.07.13.16.23.24.35.16.22.3.43.45.6.15.17.28.33.4.46.13.12.24.23.33.31.18.17.28.27.28.27,0,0-.11-.07-.33-.2-.11-.06-.24-.15-.39-.24-.15-.11-.31-.24-.5-.39-.19-.14-.37-.33-.58-.53-.22-.19-.41-.43-.62-.69-.43-.5-.84-1.13-1.24-1.84-.38-.71-.78-1.5-1.1-2.36-.34-.86-.67-1.77-.97-2.72-.31-.95-.6-1.92-.9-2.91-.3-.99-.61-1.98-.94-2.96-.05-.16-.11-.32-.16-.47-.29-.79-.61-1.56-.96-2.32-.24-.48-.47-.96-.74-1.41-.25-.46-.54-.89-.82-1.33-.59-.84-1.23-1.61-1.92-2.26-.66-.67-1.39-1.2-2.07-1.64-.69-.44-1.36-.78-1.97-1.02-.15-.06-.3-.13-.43-.19-.15-.05-.29-.1-.43-.14-.27-.09-.52-.16-.74-.24-.45-.12-.81-.18-1.05-.24-.24-.05-.37-.08-.37-.08,0,0,.48.22,1.33.61.2.1.42.22.67.35.12.06.24.13.37.2.13.08.26.16.39.24.54.32,1.12.74,1.72,1.22.15.13.29.25.44.38.08.06.15.13.23.2.07.07.14.14.22.22.15.14.29.29.44.44.15.15.28.32.43.48.59.65,1.1,1.41,1.6,2.21.49.82.94,1.69,1.35,2.62.32.75,1.03,2.35.06,4.03h0c-5.09,7.84,8.9,18.14,14.32,16.42Z" style="fill:#399f49;"/><path d="m174.68,128.93c-2.54-3.13-2.74-6.91-3.36-10.7-.48-2.93-2.72-6.52-5.62-5.63.07.19.14.37.2.56.28.85.55,1.71.77,2.56.24.84.44,1.68.65,2.47.21.8.41,1.57.63,2.28.05.18.11.36.16.53.06.17.12.34.17.51.1.34.24.64.35.95.26.59.5,1.13.78,1.58.07.11.13.22.2.33.06.11.14.2.2.29.13.19.25.36.38.5.13.14.24.28.34.39.11.1.2.19.27.26.15.14.23.22.23.22,0,0-.1-.06-.27-.16-.09-.05-.2-.12-.33-.2-.13-.09-.26-.2-.42-.32-.16-.12-.31-.28-.48-.44-.18-.16-.34-.36-.52-.58-.36-.42-.7-.95-1.04-1.54-.32-.6-.65-1.26-.93-1.98-.29-.72-.56-1.48-.82-2.28-.26-.8-.5-1.62-.76-2.45-.25-.83-.51-1.66-.79-2.49-.05-.13-.09-.27-.14-.4-.24-.66-.51-1.31-.81-1.95-.2-.4-.39-.81-.62-1.18-.21-.39-.46-.75-.69-1.11-.5-.7-1.03-1.35-1.61-1.89-.56-.56-1.17-1-1.74-1.38-.58-.37-1.14-.65-1.65-.86-.13-.05-.25-.11-.36-.16-.12-.04-.24-.08-.36-.12-.23-.07-.44-.14-.62-.2-.37-.1-.68-.15-.88-.2-.2-.04-.31-.07-.31-.07,0,0,.4.19,1.11.51.17.09.36.19.56.3.1.05.2.11.31.17.11.06.22.13.33.2.46.27.94.62,1.44,1.02.12.11.25.21.37.32.07.05.13.11.19.17.06.06.12.12.18.18.12.12.25.24.37.37.13.12.24.27.36.4.49.54.92,1.18,1.35,1.86.41.69.79,1.42,1.13,2.2.27.63.87,1.97.05,3.39h0c-4.28,6.58,7.48,15.23,12.02,13.78Z" style="fill:#399f49;"/><path d="m161.36,127.65c-1.97,4.38-5.88,6.61-9.58,9.3-2.86,2.08-5.48,6.39-2.98,8.99.16-.17.33-.35.49-.52.75-.76,1.53-1.5,2.3-2.19.77-.7,1.55-1.37,2.28-2.02.74-.65,1.45-1.27,2.09-1.89.16-.15.32-.31.48-.46.15-.15.29-.31.44-.45.3-.29.56-.6.83-.88.49-.59.94-1.14,1.27-1.68.08-.13.17-.26.24-.39.08-.12.13-.25.2-.37.13-.24.25-.46.33-.67.09-.21.17-.4.23-.56.05-.17.1-.32.13-.43.07-.24.11-.37.11-.37,0,0,0,.13-.03.38,0,.13-.02.28-.04.46-.03.18-.07.38-.12.62-.04.23-.13.48-.21.75-.07.28-.2.56-.34.86-.26.61-.64,1.26-1.09,1.93-.47.66-.99,1.37-1.61,2.05-.61.69-1.28,1.39-1.99,2.09-.71.7-1.45,1.4-2.2,2.11-.75.71-1.49,1.44-2.22,2.18-.12.12-.24.24-.35.36-.57.61-1.12,1.25-1.64,1.9-.32.43-.65.85-.93,1.29-.3.43-.56.89-.81,1.33-.48.91-.89,1.82-1.15,2.73-.3.89-.44,1.78-.53,2.59-.08.81-.08,1.56-.03,2.22,0,.16.02.32.03.47.02.15.04.3.07.44.04.28.09.54.12.77.09.45.2.8.26,1.05.06.24.1.37.1.37,0,0-.02-.53-.06-1.46,0-.23,0-.48.02-.75,0-.14,0-.28,0-.42.01-.15.03-.3.04-.46.04-.63.16-1.33.31-2.08.05-.19.09-.37.14-.57.02-.1.05-.19.07-.29.03-.1.06-.19.1-.29.06-.19.13-.39.19-.6.06-.2.16-.4.23-.6.31-.81.77-1.61,1.25-2.43.51-.8,1.09-1.6,1.73-2.38.52-.62,1.64-1.98,3.58-1.87h0c9.29,1.02,12.19-16.11,8.22-20.18Z" style="fill:#399f49;"/><path d="m132.59,1.75c-3.49,3.3-7.96,3.88-12.4,4.96-3.43.84-7.5,3.82-6.18,7.18.22-.1.43-.2.65-.29.99-.41,1.98-.8,2.96-1.15.98-.36,1.95-.68,2.88-1,.93-.32,1.82-.63,2.65-.95.21-.08.41-.16.61-.24.2-.08.39-.17.58-.25.39-.15.74-.34,1.1-.5.68-.36,1.3-.7,1.81-1.07.13-.09.25-.18.37-.27.12-.08.22-.18.33-.27.21-.17.41-.33.56-.5.16-.16.31-.31.43-.43.11-.14.21-.26.29-.35.16-.19.24-.29.24-.29,0,0-.06.12-.17.34-.06.11-.13.25-.21.41-.09.16-.21.33-.35.52-.13.2-.3.39-.48.61-.17.23-.4.44-.64.67-.47.46-1.06.92-1.74,1.37-.68.44-1.44.89-2.27,1.28-.83.41-1.71.8-2.63,1.18-.92.38-1.87.75-2.84,1.12-.96.37-1.93.76-2.88,1.17-.15.07-.31.13-.46.2-.76.35-1.51.72-2.24,1.13-.46.27-.92.54-1.35.84-.44.28-.85.61-1.26.92-.79.66-1.51,1.35-2.11,2.08-.62.71-1.09,1.48-1.48,2.19-.38.72-.67,1.41-.87,2.04-.05.15-.11.3-.15.45-.04.15-.07.29-.11.43-.07.27-.12.53-.18.76-.09.45-.12.82-.16,1.07-.03.25-.05.38-.05.38,0,0,.19-.5.5-1.37.09-.21.19-.44.3-.69.05-.12.11-.25.17-.39.07-.13.14-.27.21-.41.28-.57.65-1.17,1.08-1.8.11-.16.23-.31.35-.47.06-.08.12-.16.18-.24.07-.08.13-.15.2-.23.13-.16.27-.32.41-.48.13-.16.3-.31.44-.46.6-.63,1.32-1.2,2.08-1.77.78-.55,1.62-1.06,2.51-1.54.72-.37,2.27-1.21,4.02-.36h0c8.21,4.48,17.41-10.26,15.28-15.53Z" style="fill:#399f49;"/><path d="m31.22,110.67c-.38,3.31-2.5,5.61-4.38,8.17-1.45,1.98-2.28,5.38-.08,6.58.07-.15.14-.3.22-.44.34-.66.7-1.31,1.06-1.94.36-.63.73-1.23,1.08-1.82.35-.59.69-1.15.98-1.69.08-.14.15-.27.22-.4.07-.13.13-.27.2-.39.14-.26.24-.51.36-.76.2-.5.38-.95.49-1.38.03-.1.05-.21.08-.31.03-.1.04-.19.06-.29.03-.19.07-.36.08-.51.01-.16.03-.3.04-.42,0-.12,0-.23,0-.31,0-.17,0-.27,0-.27,0,0,.02.09.06.26.02.09.04.19.07.31.02.13.03.27.05.43.02.16.02.34.02.54.01.2-.02.41-.04.64-.04.46-.16.96-.31,1.51-.17.54-.37,1.11-.64,1.7-.26.59-.55,1.19-.88,1.8-.32.61-.66,1.23-1.01,1.86-.34.63-.69,1.27-1.01,1.91-.05.1-.11.21-.16.31-.25.52-.48,1.06-.68,1.6-.12.35-.25.7-.34,1.05-.11.35-.18.7-.26,1.05-.13.7-.2,1.39-.19,2.05-.01.65.08,1.27.19,1.83.12.55.27,1.05.45,1.47.04.11.08.21.12.31.04.1.09.19.14.28.09.18.17.34.24.48.15.28.3.49.39.64.09.14.14.22.14.22,0,0-.12-.35-.34-.95-.05-.15-.09-.32-.15-.5-.03-.09-.05-.18-.08-.28-.02-.1-.05-.2-.07-.31-.1-.43-.18-.91-.23-1.44,0-.13-.02-.27-.03-.41,0-.07-.01-.14-.01-.21,0-.07,0-.14,0-.21,0-.14,0-.29,0-.43,0-.15.02-.29.03-.45.04-.6.17-1.23.32-1.87.17-.64.39-1.29.64-1.94.22-.52.66-1.66,1.97-1.99h0c6.37-1.28,4.68-13.23,1.19-15.08Z" style="fill:#399f49;"/><path d="m8.88,81.15c1.97,4.38,5.88,6.61,9.58,9.3,2.86,2.08,5.48,6.39,2.98,8.99-.16-.17-.33-.35-.49-.52-.75-.76-1.53-1.5-2.3-2.19-.77-.7-1.55-1.37-2.28-2.02-.74-.65-1.45-1.27-2.09-1.89-.16-.15-.32-.31-.48-.46-.15-.15-.29-.31-.44-.45-.3-.29-.56-.6-.83-.88-.49-.59-.94-1.14-1.27-1.68-.08-.13-.17-.26-.24-.39-.08-.12-.14-.25-.2-.37-.13-.24-.25-.46-.33-.67-.09-.21-.17-.4-.23-.56-.05-.17-.1-.32-.13-.43-.07-.24-.11-.37-.11-.37,0,0,0,.13.03.38,0,.13.02.28.04.46.03.18.07.38.12.62.04.23.13.48.21.75.07.28.2.56.34.86.26.61.64,1.26,1.09,1.93.47.66.99,1.37,1.61,2.05.61.69,1.28,1.39,1.99,2.09.71.7,1.45,1.4,2.2,2.11.75.71,1.49,1.44,2.22,2.18.12.12.24.24.35.36.57.61,1.12,1.25,1.64,1.9.32.43.65.85.93,1.29.3.43.56.89.81,1.33.48.91.89,1.82,1.15,2.73.3.89.44,1.78.53,2.59.08.81.08,1.56.03,2.22,0,.16-.02.32-.03.47-.02.15-.04.3-.07.44-.04.28-.09.54-.12.77-.09.45-.2.8-.26,1.05-.06.24-.1.37-.1.37,0,0,.02-.53.06-1.46,0-.23,0-.48-.02-.75,0-.14,0-.28,0-.42-.01-.15-.03-.3-.04-.46-.04-.63-.16-1.33-.31-2.08-.05-.19-.09-.37-.14-.57-.02-.1-.05-.19-.07-.29-.03-.1-.06-.19-.1-.29-.06-.19-.13-.39-.19-.6-.06-.2-.16-.4-.23-.6-.31-.81-.77-1.61-1.25-2.43-.51-.8-1.09-1.6-1.73-2.38-.52-.62-1.64-1.98-3.58-1.87h0c-9.29,1.02-12.19-16.11-8.22-20.18Z" style="fill:#399f49;"/><path d="m46.23,51.85c3.65,2.12,7.93,2.8,11.61,4.93,7.85,4.55,4.49,10.99,2.47,13.31.02.2.04.39.05.58.03.53,0,1.05-.06,1.53.16-.21.32-.42.5-.63l.56-.68.59-.67c.39-.44.79-.87,1.19-1.29.8-.84,1.58-1.66,2.34-2.46.74-.8,1.45-1.59,2.07-2.38.32-.38.59-.79.87-1.17.22-.36.46-.7.66-1.04-2.41-5.5,3.27-11.65,3.81-14.8,0,0,1.16,6.63-.22,9.58-1.11,2.37-2.67,4.52-3.23,5.26,0,0,0,.01,0,.02-.2.4-.45.79-.69,1.2-.27.39-.53.82-.84,1.22-.59.83-1.29,1.64-2.02,2.47-.01.02-.03.03-.04.05,4.57-3.28,11.7.03,14.76-.38,0,0-5.98,3.08-9.21,2.64-2.81-.38-5.52-1.34-6.17-1.58-.53.59-1.07,1.19-1.61,1.8-.38.43-.77.87-1.13,1.31l-.55.67-.54.7c-.7.91-1.31,1.89-1.83,2.9,0,.02-.02.04-.03.06.37.13.87.3,1.36.46h0c4.31,1.55,14.72,6.23,19.35,12.33,0,0-4.43-8.15-18.98-12.88,3.9-5.99,24.06,6.42,21.13,17.95.24-.93-3.64-3.95-4.33-4.41-1.89-1.25-4.08-1.98-6.23-2.64-4.03-1.23-11.99-3.63-11.17-9.28,0-.04.02-.08.02-.12-.34-.09-.76-.23-.96-.23h-.41s-.37.04-.37.04c-.26.59-.49,1.19-.69,1.78-.35,1.02-.63,2.01-.85,2.99-.21.96-.34,1.9-.49,2.77-.14.87-.29,1.68-.47,2.38-.18.7-.4,1.31-.61,1.78-.22.47-.41.84-.56,1.07-.15.23-.23.35-.23.35l-.08-.04s.06-.13.17-.39c.11-.26.26-.62.4-1.11.14-.49.28-1.08.38-1.78.11-.7.19-1.49.27-2.36.08-.87.16-1.83.34-2.85.17-1.01.45-2.07.82-3.13.26-.72.56-1.44.91-2.15h-.02s.03-.07.1-.17c.03-.04.06-.1.09-.16.11-.21.22-.43.34-.64.18-.35.37-.8.54-1.32.23-.72.41-1.58.41-2.53,0,0,0,0,0,0,0,0,0,0,0,0,0-.37-.02-.73-.08-1.09,0-.06-.02-.13-.03-.19-1.17-6.12-11.32-10.84-14.96-14.71-3.89-4.14-2.83-6.13-2.83-6.13-.22.42,4.05,3.09,4.4,3.29Z" style="fill:#399f49;"/><path d="m153.32,98.12c-2.4,1.39-5.21,1.84-7.62,3.24-5.15,2.99-2.94,7.21-1.62,8.74-.01.13-.03.26-.03.38-.02.35,0,.69.04,1-.11-.14-.21-.28-.32-.41l-.37-.45-.39-.44c-.26-.29-.52-.57-.78-.85-.52-.55-1.04-1.09-1.53-1.61-.49-.53-.95-1.04-1.36-1.56-.21-.25-.39-.52-.57-.76-.15-.24-.3-.46-.43-.68,1.58-3.61-2.15-7.64-2.5-9.72,0,0-.76,4.35.15,6.28.73,1.56,1.75,2.96,2.12,3.45,0,0,0,0,0,.01.13.26.3.52.45.79.18.26.35.54.55.8.39.54.85,1.08,1.32,1.62,0,.01.02.02.03.03-3-2.15-7.68.02-9.69-.25,0,0,3.93,2.02,6.04,1.73,1.84-.25,3.62-.88,4.05-1.04.35.39.7.78,1.06,1.18.25.28.5.57.74.86l.36.44.35.46c.46.6.86,1.24,1.2,1.9,0,.01.01.03.02.04-.24.08-.57.19-.89.3h0c-2.83,1.02-9.66,4.09-12.7,8.09,0,0,2.91-5.35,12.46-8.45-2.56-3.93-15.79,4.21-13.87,11.78-.15-.61,2.39-2.6,2.84-2.89,1.24-.82,2.67-1.3,4.09-1.73,2.64-.81,7.87-2.38,7.33-6.09,0-.03-.01-.05-.01-.08.22-.06.5-.15.63-.15h.27s.24.03.24.03c.17.39.32.78.45,1.17.23.67.41,1.32.56,1.96.14.63.22,1.25.32,1.82.09.57.19,1.1.31,1.56.12.46.26.86.4,1.17.14.31.27.55.37.7.1.15.15.23.15.23l.05-.03s-.04-.09-.11-.25c-.07-.17-.17-.41-.26-.73-.09-.32-.18-.71-.25-1.17-.07-.46-.12-.98-.18-1.55-.05-.57-.11-1.2-.22-1.87-.11-.66-.3-1.36-.54-2.05-.17-.47-.37-.95-.6-1.41h.02s-.02-.05-.06-.11c-.02-.03-.04-.06-.06-.1-.07-.14-.15-.28-.22-.42-.12-.23-.24-.52-.36-.87-.15-.47-.27-1.04-.27-1.66,0,0,0,0,0,0,0,0,0,0,0,0,0-.24.02-.48.05-.72,0-.04.01-.08.02-.12.77-4.02,7.43-7.11,9.82-9.66,2.55-2.72,1.86-4.03,1.86-4.03.15.27-2.66,2.03-2.89,2.16Z" style="fill:#399f49;"/><path d="m43.48,132.01c-2.2,2.82-5.35,4.7-7.57,7.54-4.74,6.05-.06,10.06,2.25,11.25.04.16.09.32.14.48.14.43.33.82.53,1.18-.19-.12-.39-.23-.59-.34l-.65-.36-.67-.34c-.45-.23-.9-.43-1.34-.64-.89-.41-1.77-.81-2.61-1.19-.84-.4-1.64-.79-2.38-1.22-.37-.2-.71-.44-1.05-.64-.29-.21-.58-.4-.85-.61.16-5.08-6.25-8.13-7.67-10.44,0,0,1.18,5.58,3.2,7.46,1.62,1.52,3.52,2.71,4.2,3.12,0,0,0,0,.01.01.28.25.6.48.92.73.34.22.68.47,1.05.69.73.46,1.53.88,2.37,1.31.02,0,.03.02.05.02-4.63-1.14-9.19,3.72-11.73,4.36,0,0,5.68.53,8.07-.83,2.09-1.19,3.91-2.8,4.35-3.19.6.3,1.21.6,1.84.9.43.22.88.44,1.3.67l.64.35.64.38c.84.5,1.63,1.07,2.35,1.7.01.01.03.02.04.04-.25.22-.59.51-.93.79h0c-2.9,2.58-9.61,9.55-11.33,15.8,0,0,.91-7.8,10.86-16.12-4.95-3.48-16.89,12.64-10.95,20.78-.48-.66,1.62-4.26,2.01-4.83,1.09-1.58,2.58-2.84,4.06-4.04,2.78-2.24,8.28-6.64,5.85-10.82-.02-.03-.04-.06-.06-.09.24-.18.53-.42.68-.49l.33-.12.3-.09c.39.38.76.78,1.1,1.18.6.69,1.13,1.38,1.61,2.08.47.69.87,1.39,1.26,2.03.38.64.76,1.23,1.12,1.72.36.5.72.9,1.04,1.21.32.31.59.53.78.66.19.13.29.2.29.2l.05-.06s-.09-.09-.26-.25c-.17-.17-.4-.41-.66-.74-.26-.34-.56-.77-.86-1.28-.31-.51-.62-1.11-.96-1.77-.34-.66-.7-1.39-1.17-2.13-.45-.74-1.01-1.49-1.63-2.2-.43-.48-.9-.95-1.4-1.4v-.02s-.03-.03-.11-.1c-.04-.03-.08-.06-.12-.09-.15-.13-.31-.27-.47-.39-.25-.22-.55-.51-.85-.87-.41-.49-.82-1.12-1.12-1.86,0,0,0,0,0,0,0,0,0,0,0,0-.12-.29-.21-.59-.28-.89-.01-.05-.03-.11-.04-.16-1.01-5.18,5.48-12.1,7.12-16.29,1.75-4.48.29-5.71.29-5.72.31.26-2.21,3.71-2.42,3.98Z" style="fill:#399f49;"/><path d="m163.86,83.87c-3.31.18-6.41,1.58-9.75,1.76-7.11.39-7.68-5.29-7.36-7.68-.1-.12-.19-.24-.29-.36-.25-.34-.45-.68-.62-1.03-.01.21-.03.42-.05.63l-.07.69-.1.69c-.07.46-.15.91-.22,1.36-.16.89-.32,1.77-.48,2.62-.14.85-.27,1.67-.33,2.45-.04.39-.05.77-.07,1.14,0,.33,0,.66.02.97,3.95,2.57,2.87,9.06,3.87,11.36,0,0-3.61-3.86-3.98-6.39-.29-2.04-.19-4.12-.14-4.85,0,0,0,0,0-.01-.04-.35-.04-.71-.06-1.09.01-.38,0-.77.03-1.16.03-.8.14-1.63.26-2.49,0-.02,0-.03,0-.05-1.59,4.12-7.7,5.02-9.53,6.6,0,0,2.6-4.6,4.91-5.7,2.01-.96,4.2-1.49,4.73-1.61.09-.62.19-1.24.29-1.87.06-.45.13-.9.18-1.35l.07-.68.05-.69c.07-.9.05-1.81-.05-2.69,0-.02,0-.03,0-.05-.3.07-.7.18-1.09.28h0c-3.49.84-12.35,2.24-18.01.24,0,0,6.42,3.44,18.01.28.02,5.61-18.56,6.14-21.61-2.69.25.71,4.1,1.03,4.74,1.03,1.78,0,3.53-.45,5.22-.95,3.17-.93,9.44-2.78,11.33,1.29.01.03.02.06.04.09.26-.08.6-.18.73-.26l.27-.18.23-.18c-.09-.5-.19-.99-.31-1.47-.21-.82-.45-1.59-.73-2.33-.28-.72-.59-1.39-.87-2.03-.28-.63-.53-1.23-.71-1.77-.18-.54-.3-1.03-.37-1.43-.06-.4-.09-.73-.09-.95,0-.22,0-.33,0-.33h.07s.02.11.05.32c.04.21.1.52.21.9.12.38.28.83.51,1.33.23.5.52,1.06.84,1.67.32.61.68,1.27,1,2.02.32.73.6,1.56.81,2.41.14.58.25,1.19.33,1.81h.02s0,.05,0,.15c0,.04,0,.09,0,.14.02.19.04.38.05.57.04.31.1.69.21,1.1.16.57.41,1.22.82,1.84,0,0,0,0,0,0,0,0,0,0,0,0,.15.25.33.47.53.68.03.04.07.08.1.11,3.41,3.51,12.1,2.24,16.16,3.22,4.34,1.04,4.5,2.81,4.5,2.81-.03-.37-3.99-.29-4.31-.27Z" style="fill:#6fbe44;"/><path d="m135.11,136.12c-3.31.18-6.41,1.58-9.75,1.76-7.11.39-7.68-5.29-7.36-7.68-.1-.12-.19-.24-.29-.36-.25-.34-.45-.68-.62-1.03-.01.21-.03.42-.05.63l-.07.69-.1.69c-.07.46-.15.91-.22,1.36-.16.89-.32,1.77-.48,2.62-.14.85-.27,1.67-.33,2.45-.04.39-.05.77-.07,1.14,0,.33,0,.66.02.97,3.95,2.57,2.87,9.06,3.87,11.36,0,0-3.61-3.86-3.98-6.39-.29-2.04-.19-4.12-.14-4.85,0,0,0,0,0-.01-.04-.35-.04-.71-.06-1.09.01-.38,0-.77.03-1.16.03-.8.14-1.63.26-2.49,0-.02,0-.03,0-.05-1.59,4.12-7.7,5.02-9.53,6.6,0,0,2.6-4.6,4.91-5.7,2.01-.96,4.2-1.49,4.73-1.61.09-.62.19-1.24.29-1.87.06-.45.13-.9.18-1.35l.07-.68.05-.69c.07-.9.05-1.81-.05-2.69,0-.02,0-.03,0-.05-.3.07-.7.18-1.09.28h0c-3.49.84-12.35,2.24-18.01.24,0,0,6.42,3.44,18.01.28.02,5.61-18.56,6.14-21.61-2.69.25.71,4.1,1.03,4.74,1.03,1.78,0,3.53-.45,5.22-.95,3.17-.93,9.44-2.78,11.33,1.29.01.03.02.06.04.09.26-.08.6-.18.73-.26l.27-.18.23-.18c-.09-.5-.19-.99-.31-1.47-.21-.82-.45-1.59-.73-2.33-.28-.72-.59-1.39-.87-2.03-.28-.63-.53-1.23-.71-1.77-.18-.54-.3-1.03-.37-1.43-.06-.4-.09-.73-.09-.95,0-.22,0-.33,0-.33h.07s.02.11.05.32c.04.21.1.52.21.9.12.38.28.83.51,1.33.23.5.52,1.06.84,1.67.32.61.68,1.27,1,2.02.32.73.6,1.56.81,2.41.14.58.25,1.19.33,1.81h.02s0,.05,0,.15c0,.04,0,.09,0,.14.02.19.04.38.05.57.04.31.1.69.21,1.1.16.57.41,1.22.82,1.84,0,0,0,0,0,0,0,0,0,0,0,0,.15.25.33.47.53.68.03.04.07.08.1.11,3.41,3.51,12.1,2.24,16.16,3.22,4.34,1.04,4.5,2.81,4.5,2.81-.03-.37-3.99-.29-4.31-.27Z" style="fill:#6fbe44;"/><path d="m120.16,59.06c-1.76,2.33-4.3,3.9-6.07,6.24-3.78,5,.08,8.19,1.98,9.14.04.13.08.26.12.39.12.35.28.67.44.96-.16-.09-.32-.18-.48-.27l-.54-.28-.55-.27c-.37-.18-.74-.34-1.1-.51-.73-.32-1.45-.63-2.14-.94-.69-.31-1.35-.63-1.95-.96-.31-.16-.59-.35-.87-.51-.24-.17-.48-.32-.7-.49.06-4.14-5.2-6.54-6.38-8.4,0,0,1.04,4.53,2.7,6.04,1.34,1.21,2.91,2.16,3.46,2.48,0,0,0,0,0,0,.23.2.5.38.76.58.28.18.56.38.86.55.6.37,1.26.7,1.94,1.04.01,0,.03.01.04.02-3.79-.87-7.44,3.15-9.5,3.71,0,0,4.63.36,6.57-.78,1.69-1,3.15-2.33,3.5-2.66.5.23,1,.47,1.51.71.36.17.72.35,1.07.53l.53.28.53.3c.69.39,1.34.85,1.94,1.36.01,0,.02.02.03.03-.2.18-.47.42-.74.66h0c-2.33,2.14-7.71,7.9-9.02,13.02,0,0,.64-6.37,8.64-13.27-4.08-2.77-13.6,10.52-8.65,17.08-.4-.53,1.26-3.49,1.58-3.96.87-1.3,2.06-2.35,3.26-3.34,2.23-1.86,6.66-5.52,4.63-8.89-.01-.02-.03-.05-.05-.07.19-.15.42-.35.55-.4l.26-.1.24-.08c.32.31.63.62.92.95.5.56.94,1.11,1.34,1.67.39.56.73,1.12,1.05,1.63.32.52.63.99.94,1.39.3.4.6.73.86.97.26.24.49.43.65.53.16.11.24.16.24.16l.04-.05s-.07-.07-.21-.2c-.14-.13-.33-.33-.55-.6-.22-.27-.47-.62-.72-1.03-.26-.41-.52-.9-.8-1.43-.29-.53-.59-1.12-.98-1.72-.38-.6-.84-1.2-1.36-1.77-.36-.39-.74-.77-1.16-1.13h.01s-.04-.04-.1-.09c-.03-.02-.06-.05-.1-.07-.13-.11-.26-.21-.39-.31-.21-.18-.45-.41-.7-.7-.34-.39-.68-.9-.94-1.5,0,0,0,0,0,0,0,0,0,0,0,0-.1-.23-.18-.47-.24-.72-.01-.04-.02-.09-.03-.13-.89-4.21,4.31-9.93,5.59-13.37,1.37-3.67.16-4.66.16-4.66.25.21-1.75,3.05-1.92,3.27Z" style="fill:#6fbe44;"/><path d="m53.22,157.59c2.87-.5,5.81.1,8.7-.39,6.18-1.05,5.55-6.03,4.81-8.02.06-.12.12-.24.17-.36.15-.34.25-.68.33-1,.05.18.11.35.17.53l.2.57.22.57c.15.38.3.75.46,1.12.31.73.62,1.45.92,2.15.29.7.55,1.38.76,2.04.11.33.19.65.28.96.06.29.13.56.18.83-2.88,2.98-.69,8.32-1.1,10.5,0,0,2.35-4.01,2.16-6.25-.15-1.8-.64-3.57-.82-4.18,0,0,0,0,0-.01-.03-.31-.1-.62-.16-.94-.08-.32-.15-.66-.25-.99-.19-.68-.44-1.37-.71-2.09,0-.01-.01-.03-.02-.04,2.17,3.22,7.58,2.8,9.46,3.8,0,0-3.13-3.43-5.32-3.93-1.91-.43-3.89-.46-4.37-.46-.2-.51-.4-1.03-.61-1.55-.14-.37-.29-.75-.42-1.12l-.2-.56-.18-.58c-.23-.76-.39-1.54-.48-2.32,0-.01,0-.03,0-.04.27,0,.63.02.99.03h0c3.16.04,11.03-.49,15.49-3.31,0,0-4.83,4.2-15.39,3.76,1.08,4.81,17.11,1.64,18-6.53-.07.66-3.31,1.68-3.86,1.81-1.52.36-3.11.3-4.66.21-2.9-.17-8.63-.54-9.46,3.31,0,.03,0,.06-.01.08-.24-.02-.55-.03-.68-.08l-.26-.1-.23-.11c-.02-.44-.03-.89-.02-1.32.02-.75.08-1.46.17-2.14.1-.67.24-1.31.35-1.91.12-.6.22-1.15.27-1.65.05-.5.06-.94.04-1.3-.02-.36-.06-.64-.11-.83-.04-.19-.07-.28-.07-.28h-.06s0,.11.02.3c0,.19.02.46,0,.81-.03.35-.08.77-.18,1.24-.1.48-.24,1.01-.4,1.59-.16.59-.34,1.22-.46,1.93-.13.69-.21,1.45-.23,2.22,0,.53.02,1.07.07,1.61h-.02s0,.05.02.13c0,.03.01.08.02.12.02.16.04.33.07.5.03.27.05.61.03.99-.02.52-.12,1.12-.34,1.74,0,0,0,0,0,0,0,0,0,0,0,0-.08.24-.19.47-.32.69-.02.04-.04.08-.06.12-2.23,3.68-9.94,4.29-13.23,5.92-3.51,1.74-3.31,3.29-3.31,3.29-.04-.32,3.36-1.02,3.64-1.07Z" style="fill:#6fbe44;"/><path d="m45.38,21.22c-3.54,2.31-7.78,3.2-11.34,5.52-7.61,4.94-3.92,11.2-1.79,13.42-.01.2-.02.39-.02.59,0,.53.05,1.04.13,1.52-.17-.2-.35-.41-.53-.6l-.59-.65-.62-.64c-.41-.42-.83-.83-1.25-1.23-.84-.79-1.66-1.58-2.46-2.33-.78-.77-1.53-1.52-2.19-2.27-.34-.37-.63-.76-.93-1.12-.24-.35-.5-.67-.71-1.01,2.12-5.61-3.86-11.46-4.56-14.59,0,0-.82,6.68.71,9.55,1.23,2.31,2.9,4.37,3.5,5.09,0,0,0,.01,0,.02.22.39.49.76.75,1.17.29.38.57.79.9,1.18.64.8,1.38,1.57,2.14,2.37.02.02.03.03.05.05-4.73-3.04-11.69.63-14.76.38,0,0,6.13,2.77,9.33,2.17,2.79-.53,5.44-1.62,6.08-1.9.56.56,1.13,1.13,1.7,1.71.4.41.81.83,1.2,1.25l.58.64.57.67c.75.87,1.41,1.82,1.97,2.8.01.02.02.04.03.06-.36.15-.85.34-1.34.53h0c-4.23,1.77-14.39,6.98-18.7,13.3,0,0,4.01-8.36,18.3-13.83-4.2-5.78-23.7,7.64-20.19,19.01-.28-.92,3.44-4.14,4.1-4.62,1.82-1.35,3.97-2.19,6.08-2.95,3.96-1.43,11.79-4.24,10.68-9.84,0-.04-.02-.08-.03-.12.33-.11.75-.27.95-.28h.41s.37,0,.37,0c.29.58.55,1.16.78,1.74.4,1,.73,1.98,1,2.94.26.95.44,1.88.63,2.74.18.86.38,1.66.59,2.35.22.69.46,1.28.7,1.75.24.46.46.82.62,1.04.16.22.25.34.25.34l.08-.05s-.07-.13-.19-.38c-.12-.25-.29-.6-.46-1.08-.16-.48-.33-1.07-.47-1.76-.15-.69-.26-1.48-.39-2.35-.13-.87-.25-1.82-.49-2.83-.22-1-.56-2.05-.97-3.08-.3-.7-.64-1.41-1.02-2.1h.02s-.04-.07-.1-.17c-.03-.04-.06-.09-.1-.15-.12-.21-.24-.41-.37-.62-.19-.34-.41-.78-.61-1.3-.27-.7-.49-1.56-.54-2.51,0,0,0,0,0,0,0,0,0,0,0,0-.03-.37-.01-.73.03-1.1,0-.06.01-.13.02-.19.86-6.17,10.76-11.4,14.19-15.46,3.67-4.33,2.51-6.27,2.51-6.27.24.41-3.89,3.29-4.22,3.51Z" style="fill:#6fbe44;"/><path d="m101.34,37.23c0,2.77.96,5.31,2.56,7.31,1.6-2.01,2.56-4.55,2.56-7.31s-.96-5.31-2.56-7.31c-1.6,2.01-2.56,4.55-2.56,7.31Z" style="fill:#6fbe44;"/><path d="m10.15,76.8c2.77,0,5.31-.96,7.31-2.56-2.01-1.6-4.55-2.56-7.31-2.56s-5.31.96-7.31,2.56c2.01,1.6,4.55,2.56,7.31,2.56Z" style="fill:#6fbe44;"/><path d="m136.65,146.8c2.77,0,5.31-.96,7.31-2.56-2.01-1.6-4.55-2.56-7.31-2.56s-5.31.96-7.31,2.56c2.01,1.6,4.55,2.56,7.31,2.56Z" style="fill:#6fbe44;"/><path d="m10.4,149.71c2.77,0,5.31-.96,7.31-2.56-2.01-1.6-4.55-2.56-7.31-2.56s-5.31.96-7.31,2.56c2.01,1.6,4.55,2.56,7.31,2.56Z" style="fill:#6fbe44;"/><path d="m23.4,12.55c2.77,0,5.31-.96,7.31-2.56-2.01-1.6-4.55-2.56-7.31-2.56s-5.31.96-7.31,2.56c2.01,1.6,4.55,2.56,7.31,2.56Z" style="fill:#6fbe44;"/><path d="m42.9,8.55c2.77,0,5.31-.96,7.31-2.56-2.01-1.6-4.55-2.56-7.31-2.56s-5.31.96-7.31,2.56c2.01,1.6,4.55,2.56,7.31,2.56Z" style="fill:#e9e5d9;"/><path d="m9.9,29.3c2.77,0,5.31-.96,7.31-2.56-2.01-1.6-4.55-2.56-7.31-2.56s-5.31.96-7.31,2.56c2.01,1.6,4.55,2.56,7.31,2.56Z" style="fill:#e9e5d9;"/><path d="m35.4,21.3c2.77,0,5.31-.96,7.31-2.56-2.01-1.6-4.55-2.56-7.31-2.56s-5.31.96-7.31,2.56c2.01,1.6,4.55,2.56,7.31,2.56Z" style="fill:#e9e5d9;"/><path d="m60.65,47.8c2.77,0,5.31-.96,7.31-2.56-2.01-1.6-4.55-2.56-7.31-2.56s-5.31.96-7.31,2.56c2.01,1.6,4.55,2.56,7.31,2.56Z" style="fill:#e9e5d9;"/><path d="m96.4,55.55c2.77,0,5.31-.96,7.31-2.56-2.01-1.6-4.55-2.56-7.31-2.56s-5.31.96-7.31,2.56c2.01,1.6,4.55,2.56,7.31,2.56Z" style="fill:#e9e5d9;"/><path d="m131.9,157.05c2.77,0,5.31-.96,7.31-2.56-2.01-1.6-4.55-2.56-7.31-2.56s-5.31.96-7.31,2.56c2.01,1.6,4.55,2.56,7.31,2.56Z" style="fill:#e9e5d9;"/><path d="m150.09,163.9c0,2.77.96,5.31,2.56,7.31,1.6-2.01,2.56-4.55,2.56-7.31s-.96-5.31-2.56-7.31c-1.6,2.01-2.56,4.55-2.56,7.31Z" style="fill:#e9e5d9;"/><path d="m159.9,77.3c2.77,0,5.31-.96,7.31-2.56-2.01-1.6-4.55-2.56-7.31-2.56s-5.31.96-7.31,2.56c2.01,1.6,4.55,2.56,7.31,2.56Z" style="fill:#e9e5d9;"/><path d="m16.4,131.8c2.77,0,5.31-.96,7.31-2.56-2.01-1.6-4.55-2.56-7.31-2.56s-5.31.96-7.31,2.56c2.01,1.6,4.55,2.56,7.31,2.56Z" style="fill:#e9e5d9;"/><path d="m124.9,95.55c2.77,0,5.31-.96,7.31-2.56-2.01-1.6-4.55-2.56-7.31-2.56s-5.31.96-7.31,2.56c2.01,1.6,4.55,2.56,7.31,2.56Z" style="fill:#e9e5d9;"/><path d="m14.68,159.48c0,2.77.96,5.31,2.56,7.31,1.6-2.01,2.56-4.55,2.56-7.31s-.96-5.31-2.56-7.31c-1.6,2.01-2.56,4.55-2.56,7.31Z" style="fill:#e9e5d9;"/><path d="m167.15,104.05c2.77,0,5.31-.96,7.31-2.56-2.01-1.6-4.55-2.56-7.31-2.56s-5.31.96-7.31,2.56c2.01,1.6,4.55,2.56,7.31,2.56Z" style="fill:#e9e5d9;"/><path d="m52.22,144.23c0-2.77-.96-5.31-2.56-7.31-1.6,2.01-2.56,4.55-2.56,7.31s.96,5.31,2.56,7.31c1.6-2.01,2.56-4.55,2.56-7.31Z" style="fill:#e9e5d9;"/><path d="m59.15,168.05c2.77,0,5.31-.96,7.31-2.56-2.01-1.6-4.55-2.56-7.31-2.56s-5.31.96-7.31,2.56c2.01,1.6,4.55,2.56,7.31,2.56Z" style="fill:#e9e5d9;"/><path d="m98.65,138.8c2.77,0,5.31-.96,7.31-2.56-2.01-1.6-4.55-2.56-7.31-2.56s-5.31.96-7.31,2.56c2.01,1.6,4.55,2.56,7.31,2.56Z" style="fill:#e9e5d9;"/><path d="m47.9,68.05c2.77,0,5.31-.96,7.31-2.56-2.01-1.6-4.55-2.56-7.31-2.56s-5.31.96-7.31,2.56c2.01,1.6,4.55,2.56,7.31,2.56Z" style="fill:#e9e5d9;"/><path d="m10.15,140.05c2.77,0,5.31-.96,7.31-2.56-2.01-1.6-4.55-2.56-7.31-2.56s-5.31.96-7.31,2.56c2.01,1.6,4.55,2.56,7.31,2.56Z" style="fill:#e9e5d9;"/><path d="m19.9,68.55c2.77,0,5.31-.96,7.31-2.56-2.01-1.6-4.55-2.56-7.31-2.56s-5.31.96-7.31,2.56c2.01,1.6,4.55,2.56,7.31,2.56Z" style="fill:#e9e5d9;"/><path d="m42.84,39.23c0,2.77.96,5.31,2.56,7.31,1.6-2.01,2.56-4.55,2.56-7.31s-.96-5.31-2.56-7.31c-1.6,2.01-2.56,4.55-2.56,7.31Z" style="fill:#6fbe44;"/><path d="m100.84,10.98c0,2.77.96,5.31,2.56,7.31,1.6-2.01,2.56-4.55,2.56-7.31s-.96-5.31-2.56-7.31c-1.6,2.01-2.56,4.55-2.56,7.31Z" style="fill:#6fbe44;"/><path d="m71.09,31.98c0,2.77.96,5.31,2.56,7.31,1.6-2.01,2.56-4.55,2.56-7.31s-.96-5.31-2.56-7.31c-1.6,2.01-2.56,4.55-2.56,7.31Z" style="fill:#6fbe44;"/><path d="m129.59,29.23c0,2.77.96,5.31,2.56,7.31,1.6-2.01,2.56-4.55,2.56-7.31s-.96-5.31-2.56-7.31c-1.6,2.01-2.56,4.55-2.56,7.31Z" style="fill:#e9e5d9;"/><path d="m125.09,59.98c0,2.77.96,5.31,2.56,7.31,1.6-2.01,2.56-4.55,2.56-7.31s-.96-5.31-2.56-7.31c-1.6,2.01-2.56,4.55-2.56,7.31Z" style="fill:#e9e5d9;"/><path d="m150.84,43.73c0,2.77.96,5.31,2.56,7.31,1.6-2.01,2.56-4.55,2.56-7.31s-.96-5.31-2.56-7.31c-1.6,2.01-2.56,4.55-2.56,7.31Z" style="fill:#e9e5d9;"/><path d="m82.84,129.73c0,2.77.96,5.31,2.56,7.31,1.6-2.01,2.56-4.55,2.56-7.31s-.96-5.31-2.56-7.31c-1.6,2.01-2.56,4.55-2.56,7.31Z" style="fill:#e9e5d9;"/><path d="m82.09,73.73c0,2.77.96,5.31,2.56,7.31,1.6-2.01,2.56-4.55,2.56-7.31s-.96-5.31-2.56-7.31c-1.6,2.01-2.56,4.55-2.56,7.31Z" style="fill:#e9e5d9;"/><path d="m136.09,15.48c0,2.77.96,5.31,2.56,7.31,1.6-2.01,2.56-4.55,2.56-7.31s-.96-5.31-2.56-7.31c-1.6,2.01-2.56,4.55-2.56,7.31Z" style="fill:#e9e5d9;"/><path d="m85.09,14.23c0,2.77.96,5.31,2.56,7.31,1.6-2.01,2.56-4.55,2.56-7.31s-.96-5.31-2.56-7.31c-1.6,2.01-2.56,4.55-2.56,7.31Z" style="fill:#e9e5d9;"/><path d="m53.09,103.98c0,2.77.96,5.31,2.56,7.31,1.6-2.01,2.56-4.55,2.56-7.31s-.96-5.31-2.56-7.31c-1.6,2.01-2.56,4.55-2.56,7.31Z" style="fill:#e9e5d9;"/><path d="m108.34,48.48c0,2.77.96,5.31,2.56,7.31,1.6-2.01,2.56-4.55,2.56-7.31s-.96-5.31-2.56-7.31c-1.6,2.01-2.56,4.55-2.56,7.31Z" style="fill:#e9e5d9;"/><path d="m113.34,28.23c0,2.77.96,5.31,2.56,7.31,1.6-2.01,2.56-4.55,2.56-7.31s-.96-5.31-2.56-7.31c-1.6,2.01-2.56,4.55-2.56,7.31Z" style="fill:#e9e5d9;"/><path d="m159.15,8.3c2.77,0,5.31-.96,7.31-2.56-2.01-1.6-4.55-2.56-7.31-2.56s-5.31.96-7.31,2.56c2.01,1.6,4.55,2.56,7.31,2.56Z" style="fill:#6fbe44;"/><path d="m167.15,95.3c2.77,0,5.31-.96,7.31-2.56-2.01-1.6-4.55-2.56-7.31-2.56s-5.31.96-7.31,2.56c2.01,1.6,4.55,2.56,7.31,2.56Z" style="fill:#6fbe44;"/><path d="m14.84,114.23c0,2.77.96,5.31,2.56,7.31,1.6-2.01,2.56-4.55,2.56-7.31s-.96-5.31-2.56-7.31c-1.6,2.01-2.56,4.55-2.56,7.31Z" style="fill:#6fbe44;"/><path d="m4.84,46.23c0,2.77.96,5.31,2.56,7.31,1.6-2.01,2.56-4.55,2.56-7.31s-.96-5.31-2.56-7.31c-1.6,2.01-2.56,4.55-2.56,7.31Z" style="fill:#6fbe44;"/><path d="m6.09,108.48c0,2.77.96,5.31,2.56,7.31,1.6-2.01,2.56-4.55,2.56-7.31s-.96-5.31-2.56-7.31c-1.6,2.01-2.56,4.55-2.56,7.31Z" style="fill:#6fbe44;"/><path d="m64.34,98.48c0,2.77.96,5.31,2.56,7.31,1.6-2.01,2.56-4.55,2.56-7.31s-.96-5.31-2.56-7.31c-1.6,2.01-2.56,4.55-2.56,7.31Z" style="fill:#6fbe44;"/><path d="m96.01,111.48c0,2.77.96,5.31,2.56,7.31,1.6-2.01,2.56-4.55,2.56-7.31s-.96-5.31-2.56-7.31c-1.6,2.01-2.56,4.55-2.56,7.31Z" style="fill:#6fbe44;"/><path d="m107.51,150.98c0,2.77.96,5.31,2.56,7.31,1.6-2.01,2.56-4.55,2.56-7.31s-.96-5.31-2.56-7.31c-1.6,2.01-2.56,4.55-2.56,7.31Z" style="fill:#6fbe44;"/><path d="m20.68,77.98c0,2.77.96,5.31,2.56,7.31,1.6-2.01,2.56-4.55,2.56-7.31s-.96-5.31-2.56-7.31c-1.6,2.01-2.56,4.55-2.56,7.31Z" style="fill:#399f49;"/><path d="m93.57,64.55c2.77,0,5.31-.96,7.31-2.56-2.01-1.6-4.55-2.56-7.31-2.56s-5.31.96-7.31,2.56c2.01,1.6,4.55,2.56,7.31,2.56Z" style="fill:#399f49;"/><path d="m1.93,9.9c0,2.77.96,5.31,2.56,7.31,1.6-2.01,2.56-4.55,2.56-7.31s-.96-5.31-2.56-7.31c-1.6,2.01-2.56,4.55-2.56,7.31Z" style="fill:#399f49;"/><path d="m53.68,9.9c0,2.77.96,5.31,2.56,7.31,1.6-2.01,2.56-4.55,2.56-7.31s-.96-5.31-2.56-7.31c-1.6,2.01-2.56,4.55-2.56,7.31Z" style="fill:#399f49;"/><path d="m140.18,30.15c0,2.77.96,5.31,2.56,7.31,1.6-2.01,2.56-4.55,2.56-7.31s-.96-5.31-2.56-7.31c-1.6,2.01-2.56,4.55-2.56,7.31Z" style="fill:#399f49;"/><path d="m89.43,85.4c0,2.77.96,5.31,2.56,7.31,1.6-2.01,2.56-4.55,2.56-7.31s-.96-5.31-2.56-7.31c-1.6,2.01-2.56,4.55-2.56,7.31Z" style="fill:#399f49;"/><path d="m15.67,172.02c-3.96-2.71-8.47-2.58-13.02-2.95-3.52-.29-8.01-2.59-7.23-6.12.23.06.46.13.69.18,1.04.25,2.08.48,3.11.67,1.02.2,2.03.37,3,.54.97.17,1.9.33,2.77.52.22.05.43.1.64.14.21.05.41.11.62.16.41.09.79.22,1.16.32.73.25,1.4.49,1.95.77.14.07.28.14.41.2.13.06.25.14.37.21.23.14.46.26.63.4.18.14.35.26.49.36.13.12.25.22.34.3.19.16.29.25.29.25,0,0-.08-.11-.22-.31-.07-.1-.17-.23-.27-.37-.12-.14-.26-.29-.43-.46-.16-.18-.36-.34-.57-.53-.21-.2-.46-.37-.74-.56-.54-.38-1.2-.74-1.93-1.08-.74-.32-1.56-.65-2.45-.91-.88-.27-1.82-.52-2.79-.75-.97-.23-1.97-.44-2.98-.66-1.01-.22-2.02-.45-3.03-.7-.16-.04-.33-.08-.49-.12-.81-.22-1.61-.48-2.39-.77-.5-.2-.99-.39-1.47-.62-.48-.21-.94-.47-1.39-.71-.88-.52-1.7-1.09-2.41-1.73-.72-.61-1.3-1.29-1.81-1.93-.49-.65-.88-1.29-1.18-1.88-.08-.14-.15-.28-.22-.42-.06-.14-.12-.28-.17-.41-.11-.26-.21-.5-.29-.72-.16-.43-.25-.79-.33-1.03-.07-.24-.11-.37-.11-.37,0,0,.26.46.71,1.27.12.19.26.4.41.64.07.11.15.23.23.36.09.12.18.24.27.37.36.51.83,1.06,1.35,1.61.14.14.27.27.42.41.07.07.14.14.21.21.08.07.16.13.24.2.15.13.31.27.48.41.16.14.34.26.51.39.69.53,1.5.98,2.33,1.42.85.42,1.77.8,2.72,1.13.77.26,2.43.84,4.03-.27h0c7.4-5.71,18.8,7.4,17.53,12.94Z" style="fill:#6fbe44;"/><path d="m-18.09,71.53c2.79-3.9,2.76-8.41,3.23-12.96.36-3.52,2.77-7.95,6.28-7.09-.07.23-.14.46-.2.68-.28,1.03-.53,2.07-.74,3.09-.22,1.02-.41,2.03-.6,2.99-.2.97-.37,1.89-.58,2.76-.05.22-.1.43-.16.64-.06.21-.12.41-.17.61-.1.41-.24.78-.35,1.16-.27.72-.52,1.38-.81,1.94-.07.14-.14.27-.21.4-.07.13-.15.24-.22.36-.14.23-.27.45-.41.62-.14.18-.26.35-.37.49-.12.13-.23.24-.31.33-.17.18-.26.28-.26.28,0,0,.11-.07.32-.21.1-.07.23-.16.38-.27.14-.11.29-.26.47-.42.18-.15.35-.35.54-.56.2-.2.38-.46.58-.73.4-.53.77-1.18,1.13-1.91.34-.74.68-1.55.96-2.43.29-.87.56-1.8.81-2.77.25-.96.48-1.96.72-2.96.24-1,.49-2.01.76-3.01.04-.16.09-.32.13-.48.24-.8.51-1.6.82-2.37.21-.49.41-.99.65-1.45.22-.48.49-.93.74-1.37.54-.87,1.13-1.68,1.78-2.37.62-.71,1.32-1.28,1.97-1.76.66-.48,1.31-.85,1.9-1.14.15-.07.29-.15.42-.21.14-.06.28-.11.42-.16.26-.1.51-.2.73-.28.44-.15.8-.23,1.03-.3.24-.06.37-.1.37-.1,0,0-.47.25-1.29.68-.19.12-.41.25-.65.39-.12.07-.24.14-.36.22-.12.08-.25.17-.38.26-.52.35-1.07.8-1.64,1.32-.14.13-.28.27-.42.41-.07.07-.14.14-.22.21-.07.08-.13.15-.2.23-.14.15-.28.31-.42.47-.14.15-.26.33-.4.5-.55.68-1.01,1.47-1.47,2.3-.44.84-.83,1.75-1.19,2.69-.27.77-.89,2.41.18,4.03h0c5.55,7.52-7.8,18.64-13.31,17.25Z" style="fill:#6fbe44;"/><path d="m4.88,128.93c-2.54-3.13-2.74-6.91-3.36-10.7-.48-2.93-2.72-6.52-5.62-5.63.07.19.14.37.2.56.28.85.55,1.71.77,2.56.24.84.44,1.68.65,2.47.21.8.41,1.57.63,2.28.05.18.11.36.16.53.06.17.12.34.17.51.1.34.24.64.35.95.26.59.5,1.13.78,1.58.07.11.13.22.2.33.06.11.14.2.2.29.13.19.25.36.38.5.13.14.24.28.34.39.11.1.2.19.27.26.15.14.23.22.23.22,0,0-.1-.06-.27-.16-.09-.05-.2-.12-.33-.2-.13-.09-.26-.2-.42-.32-.16-.12-.31-.28-.48-.44-.18-.16-.34-.36-.52-.58-.36-.42-.7-.95-1.04-1.54-.32-.6-.65-1.26-.93-1.98-.29-.72-.56-1.48-.82-2.28-.26-.8-.5-1.62-.76-2.45-.25-.83-.51-1.66-.79-2.49-.05-.13-.09-.27-.14-.4-.24-.66-.51-1.31-.81-1.95-.2-.4-.39-.81-.62-1.18-.21-.39-.46-.75-.69-1.11-.5-.7-1.03-1.35-1.61-1.89-.56-.56-1.17-1-1.74-1.38-.58-.37-1.14-.65-1.65-.86-.13-.05-.25-.11-.36-.16-.12-.04-.24-.08-.36-.12-.23-.07-.44-.14-.62-.2-.37-.1-.68-.15-.88-.2-.2-.04-.31-.07-.31-.07,0,0,.4.19,1.11.51.17.09.36.19.56.3.1.05.2.11.31.17.11.06.22.13.33.2.46.27.94.62,1.44,1.02.12.11.25.21.37.32.07.05.13.11.19.17.06.06.12.12.18.18.12.12.25.24.37.37.13.12.24.27.36.4.49.54.92,1.18,1.35,1.86.41.69.79,1.42,1.13,2.2.27.63.87,1.97.05,3.39h0c-4.28,6.58,7.48,15.23,12.02,13.78Z" style="fill:#399f49;"/><path d="m-2.65,104.05c2.77,0,5.31-.96,7.31-2.56-2.01-1.6-4.55-2.56-7.31-2.56s-5.31.96-7.31,2.56c2.01,1.6,4.55,2.56,7.31,2.56Z" style="fill:#e9e5d9;"/><path d="m-2.65,95.3c2.77,0,5.31-.96,7.31-2.56-2.01-1.6-4.55-2.56-7.31-2.56s-5.31.96-7.31,2.56c2.01,1.6,4.55,2.56,7.31,2.56Z" style="fill:#6fbe44;"/><rect x="0" y="-169.81" width="169.81" height="169.81" style="fill:#f9f8f7;"/><path d="m79.87,7.16c5.1-3.14,10.7-2.72,16.4-2.91,4.4-.15,10.13-2.76,9.36-7.2-.29.07-.58.13-.87.19-1.31.26-2.62.48-3.91.65-1.29.19-2.56.34-3.77.49-1.22.16-2.39.3-3.48.49-.28.04-.54.09-.81.14-.26.05-.52.11-.78.16-.52.09-.99.23-1.47.33-.92.27-1.77.53-2.48.84-.18.08-.35.15-.52.23-.17.07-.32.17-.47.24-.3.16-.58.3-.81.46-.24.16-.45.3-.64.42-.17.14-.32.26-.44.35-.24.19-.37.3-.37.3,0,0,.1-.13.29-.37.1-.12.22-.27.36-.45.15-.17.34-.34.56-.55.2-.21.46-.41.74-.63.27-.24.6-.44.95-.65.69-.45,1.53-.85,2.47-1.24.94-.36,1.98-.72,3.1-.99,1.11-.29,2.29-.55,3.51-.77,1.22-.23,2.48-.44,3.75-.65,1.27-.21,2.55-.44,3.82-.69.2-.04.41-.08.61-.13,1.02-.23,2.03-.5,3.02-.82.63-.22,1.26-.42,1.86-.68.61-.23,1.19-.53,1.77-.81,1.13-.6,2.19-1.26,3.1-2.01.93-.71,1.7-1.53,2.36-2.3.65-.78,1.18-1.55,1.58-2.27.1-.17.21-.35.3-.51.09-.17.17-.34.24-.5.15-.32.29-.61.41-.88.23-.53.36-.97.47-1.26.1-.29.16-.45.16-.45,0,0-.35.56-.96,1.54-.16.23-.34.49-.54.77-.1.14-.2.28-.31.43-.12.14-.24.29-.36.44-.48.62-1.09,1.27-1.78,1.93-.18.16-.36.32-.54.49-.09.09-.18.17-.28.25-.1.08-.2.15-.31.23-.2.16-.4.32-.62.48-.2.17-.44.3-.66.45-.89.62-1.92,1.13-2.99,1.63-1.09.47-2.25.89-3.45,1.25-.98.27-3.07.9-5-.57h0c-8.88-7.55-23.86,8.12-22.59,15.09Z" style="fill:#399f49;"/><path d="m185.48,2.21c-3.96-2.71-8.47-2.58-13.02-2.95-3.52-.29-8.01-2.59-7.23-6.12.23.06.46.13.69.18,1.04.25,2.08.48,3.11.67,1.02.2,2.03.37,3,.54.97.17,1.9.33,2.77.52.22.05.43.1.64.14.21.05.41.11.62.16.41.09.79.22,1.16.32.73.25,1.4.49,1.95.77.14.07.28.14.41.2.13.06.25.14.37.21.23.14.46.26.63.4.18.14.35.26.49.36.13.12.25.22.34.3.19.16.29.25.29.25,0,0-.08-.11-.22-.31-.07-.1-.17-.23-.27-.37-.12-.14-.26-.29-.43-.46-.16-.18-.36-.34-.57-.53-.21-.2-.46-.37-.74-.56-.54-.38-1.2-.74-1.93-1.08-.74-.32-1.56-.65-2.45-.91-.88-.27-1.82-.52-2.79-.75-.97-.23-1.97-.44-2.98-.66-1.01-.22-2.02-.45-3.03-.7-.16-.04-.33-.08-.49-.12-.81-.22-1.61-.48-2.39-.77-.5-.2-.99-.39-1.47-.62-.48-.21-.94-.47-1.39-.71-.88-.52-1.7-1.09-2.41-1.73-.72-.61-1.3-1.29-1.81-1.93-.49-.65-.88-1.29-1.18-1.88-.08-.14-.15-.28-.22-.42-.06-.14-.12-.28-.17-.41-.11-.26-.21-.5-.29-.72-.16-.43-.25-.79-.33-1.03-.07-.24-.11-.37-.11-.37,0,0,.26.46.71,1.27.12.19.26.4.41.64.07.11.15.23.23.36.09.12.18.24.27.37.36.51.83,1.06,1.35,1.61.14.14.27.27.42.41.07.07.14.14.21.21.08.07.16.13.24.2.15.13.31.27.48.41.16.14.34.26.51.39.69.53,1.5.98,2.33,1.42.85.42,1.77.8,2.72,1.13.77.26,2.43.84,4.03-.27h0c7.4-5.71,18.8,7.4,17.53,12.94Z" style="fill:#6fbe44;"/><path d="m43.48-37.8c-2.2,2.82-5.35,4.7-7.57,7.54-4.74,6.05-.06,10.06,2.25,11.25.04.16.09.32.14.47.14.43.33.82.53,1.18-.19-.12-.39-.23-.59-.34l-.65-.36-.67-.34c-.45-.23-.9-.43-1.34-.64-.89-.41-1.77-.81-2.61-1.19-.84-.4-1.64-.79-2.38-1.22-.37-.2-.71-.44-1.05-.64-.29-.21-.58-.4-.85-.61.16-5.08-6.25-8.13-7.67-10.44,0,0,1.18,5.58,3.2,7.46,1.62,1.52,3.52,2.71,4.2,3.12,0,0,0,0,.01,0,.28.25.6.47.92.73.34.22.68.47,1.05.69.73.46,1.53.88,2.37,1.31.02,0,.03.02.05.02-4.63-1.14-9.19,3.72-11.73,4.36,0,0,5.68.53,8.07-.83,2.09-1.19,3.91-2.8,4.35-3.19.6.3,1.21.6,1.84.9.43.22.88.44,1.3.67l.64.35.64.38c.84.5,1.63,1.07,2.35,1.7.01.01.03.02.04.04-.25.22-.59.51-.93.79h0c-2.9,2.58-9.61,9.55-11.33,15.8,0,0,.91-7.8,10.86-16.12-4.95-3.48-16.89,12.64-10.95,20.78-.48-.66,1.62-4.26,2.01-4.83,1.09-1.58,2.58-2.84,4.06-4.04,2.78-2.24,8.28-6.64,5.85-10.82-.02-.03-.04-.06-.06-.09.24-.18.53-.42.68-.49l.33-.12.3-.09c.39.38.76.78,1.1,1.18.6.69,1.13,1.38,1.61,2.08.47.69.87,1.39,1.26,2.03.38.64.76,1.23,1.12,1.72.36.5.72.9,1.04,1.21.32.31.59.53.78.66.19.13.29.2.29.2l.05-.06s-.09-.09-.26-.25c-.17-.17-.4-.41-.66-.74-.26-.34-.56-.77-.86-1.28-.31-.51-.62-1.11-.96-1.77-.34-.66-.7-1.39-1.17-2.13-.45-.74-1.01-1.49-1.63-2.2-.43-.48-.9-.95-1.4-1.4v-.02s-.03-.03-.11-.1c-.04-.03-.08-.06-.12-.09-.15-.13-.31-.27-.47-.39-.25-.22-.55-.51-.85-.87-.41-.49-.82-1.12-1.12-1.86,0,0,0,0,0,0,0,0,0,0,0,0-.12-.29-.21-.59-.28-.89-.01-.05-.03-.11-.04-.16-1.01-5.18,5.48-12.1,7.12-16.29,1.75-4.48.29-5.71.29-5.72.31.26-2.21,3.71-2.42,3.98Z" style="fill:#399f49;"/><path d="m150.09-5.91c0,2.77.96,5.31,2.56,7.31,1.6-2.01,2.56-4.55,2.56-7.31s-.96-5.31-2.56-7.31c-1.6,2.01-2.56,4.55-2.56,7.31Z" style="fill:#e9e5d9;"/><path d="m15.67,2.21C11.71-.49,7.21-.37,2.65-.74-.87-1.02-5.36-3.33-4.58-6.86c.23.06.46.13.69.18,1.04.25,2.08.48,3.11.67,1.02.2,2.03.37,3,.54.97.17,1.9.33,2.77.52.22.05.43.1.64.14.21.05.41.11.62.16.41.09.79.22,1.16.32.73.25,1.4.49,1.95.77.14.07.28.14.41.2.13.06.25.14.37.21.23.14.46.26.63.4.18.14.35.26.49.36.13.12.25.22.34.3.19.16.29.25.29.25,0,0-.08-.11-.22-.31-.07-.1-.17-.23-.27-.37-.12-.14-.26-.29-.43-.46-.16-.18-.36-.34-.57-.53-.21-.2-.46-.37-.74-.56-.54-.38-1.2-.74-1.93-1.08-.74-.32-1.56-.65-2.45-.91-.88-.27-1.82-.52-2.79-.75-.97-.23-1.97-.44-2.98-.66-1.01-.22-2.02-.45-3.03-.7-.16-.04-.33-.08-.49-.12-.81-.22-1.61-.48-2.39-.77-.5-.2-.99-.39-1.47-.62-.48-.21-.94-.47-1.39-.71-.88-.52-1.7-1.09-2.41-1.73-.72-.61-1.3-1.29-1.81-1.93-.49-.65-.88-1.29-1.18-1.88-.08-.14-.15-.28-.22-.42-.06-.14-.12-.28-.17-.41-.11-.26-.21-.5-.29-.72-.16-.43-.25-.79-.33-1.03-.07-.24-.11-.37-.11-.37,0,0,.26.46.71,1.27.12.19.26.4.41.64.07.11.15.23.23.36.09.12.18.24.27.37.36.51.83,1.06,1.35,1.61.14.14.27.27.42.41.07.07.14.14.21.21.08.07.16.13.24.2.15.13.31.27.48.41.16.14.34.26.51.39.69.53,1.5.98,2.33,1.42.85.42,1.77.8,2.72,1.13.77.26,2.43.84,4.03-.27h0C5.55-16.44,16.95-3.32,15.67,2.21Z" style="fill:#6fbe44;"/></pattern></defs><g id="BACKGROUND_1"><rect width="500" height="500" style="fill:#f9f8f7;"/><rect width="500" height="500" style="fill:url(#New_Pattern);"/></g></svg>